<svg xmlns="http://www.w3.org/2000/svg" viewBox="0 0 100 100">
  <!-- Ciało przeciwnika -->
  <circle cx="50" cy="50" r="28" fill="#FF5555" stroke="#AA2222" stroke-width="2"/>
  
  <!-- Oczy -->
  <circle cx="38" cy="40" r="5" fill="white"/>
  <circle cx="62" cy="40" r="5" fill="white"/>
  <circle cx="38" cy="40" r="2" fill="black"/>
  <circle cx="62" cy="40" r="2" fill="black"/>
  
  <!-- Brwi -->
  <path d="M33 32 L43 36" stroke="black" stroke-width="2"/>
  <path d="M57 36 L67 32" stroke="black" stroke-width="2"/>
  
  <!-- Usta -->
  <path d="M40 65 Q50 55 60 65" stroke="black" fill="none" stroke-width="2"/>
  
  <!-- Kolce -->
  <path d="M50 22 L45 10 L50 15 L55 10 L50 22" fill="#AA2222"/>
  <path d="M78 50 L90 45 L85 50 L90 55 L78 50" fill="#AA2222"/>
  <path d="M50 78 L55 90 L50 85 L45 90 L50 78" fill="#AA2222"/>
  <path d="M22 50 L10 55 L15 50 L10 45 L22 50" fill="#AA2222"/>
</svg>
