<svg viewBox="0 0 128 128" xmlns="http://www.w3.org/2000/svg">
  <defs>
    <radialGradient id="redBoss" cx="0.3" cy="0.3">
      <stop offset="0%" stop-color="#ff6b6b"/>
      <stop offset="70%" stop-color="#e63946"/>
      <stop offset="100%" stop-color="#a61e1e"/>
    </radialGradient>
    <filter id="glow">
      <feGaussianBlur stdDeviation="2" result="coloredBlur"/>
      <feMerge>
        <feMergeNode in="coloredBlur"/>
        <feMergeNode in="SourceGraphic"/>
      </feMerge>
    </filter>
  </defs>
  
  <!-- Główny balon -->
  <ellipse cx="64" cy="60" rx="35" ry="40" fill="url(#redBoss)" filter="url(#glow)"/>
  
  <!-- Detale -->
  <ellipse cx="52" cy="48" rx="6" ry="8" fill="#ff9999" opacity="0.6"/>
  <ellipse cx="76" cy="52" rx="5" ry="6" fill="#ff9999" opacity="0.6"/>
  
  <!-- Oczy -->
  <ellipse cx="56" cy="58" rx="3" ry="4" fill="#000"/>
  <ellipse cx="72" cy="58" rx="3" ry="4" fill="#000"/>
  <ellipse cx="56.5" cy="57" rx="1" ry="1.5" fill="#fff"/>
  <ellipse cx="72.5" cy="57" rx="1" ry="1.5" fill="#fff"/>
  
  <!-- Usta -->
  <path d="M52 70 Q64 78 76 70" stroke="#000" stroke-width="2" fill="none"/>
  
  <!-- Płomienie -->
  <path d="M35 38 Q30 28 40 23 Q45 18 35 13" fill="#ff4444" opacity="0.8"/>
  <path d="M93 42 Q98 32 88 27 Q83 22 93 17" fill="#ff4444" opacity="0.8"/>
  
  <!-- Sznurek -->
  <line x1="64" y1="100" x2="64" y2="115" stroke="#8b4513" stroke-width="2"/>
</svg>