<svg viewBox="0 0 128 128" xmlns="http://www.w3.org/2000/svg">
  <defs>
    <radialGradient id="goldBoss" cx="0.3" cy="0.3">
      <stop offset="0%" stop-color="#ffd43b"/>
      <stop offset="70%" stop-color="#fab005"/>
      <stop offset="100%" stop-color="#e67700"/>
    </radialGradient>
    <filter id="strongGlow">
      <feGaussianBlur stdDeviation="3" result="coloredBlur"/>
      <feMerge>
        <feMergeNode in="coloredBlur"/>
        <feMergeNode in="SourceGraphic"/>
      </feMerge>
    </filter>
  </defs>
  
  <!-- Główny balon -->
  <ellipse cx="64" cy="60" rx="35" ry="40" fill="url(#goldBoss)" filter="url(#strongGlow)"/>
  
  <!-- Korona -->
  <rect x="48" y="20" width="32" height="12" fill="#ffd700"/>
  <polygon points="52,20 56,15 60,20" fill="#ffd700"/>
  <polygon points="60,20 64,12 68,20" fill="#ffd700"/>
  <polygon points="68,20 72,15 76,20" fill="#ffd700"/>
  
  <!-- Klejnoty w koronie -->
  <circle cx="56" cy="26" r="1.5" fill="#ff0000"/>
  <circle cx="64" cy="26" r="1.5" fill="#0000ff"/>
  <circle cx="72" cy="26" r="1.5" fill="#ff0000"/>
  
  <!-- Dodatkowe złote detale -->
  <ellipse cx="50" cy="45" rx="4" ry="6" fill="#ffd700" opacity="0.6"/>
  <ellipse cx="78" cy="50" rx="4" ry="6" fill="#ffd700" opacity="0.6"/>
  
  <!-- Oczy -->
  <ellipse cx="56" cy="58" rx="3" ry="4" fill="#000"/>
  <ellipse cx="72" cy="58" rx="3" ry="4" fill="#000"/>
  <ellipse cx="56.5" cy="57" rx="1" ry="1.5" fill="#ffd700"/>
  <ellipse cx="72.5" cy="57" rx="1" ry="1.5" fill="#ffd700"/>
  
  <!-- Wąsy królewskie -->
  <path d="M48 65 Q43 68 48 72" stroke="#daa520" stroke-width="2" fill="none"/>
  <path d="M80 65 Q85 68 80 72" stroke="#daa520" stroke-width="2" fill="none"/>
  
  <!-- Usta -->
  <path d="M56 75 Q64 80 72 75" stroke="#000" stroke-width="2" fill="none"/>
  
  <!-- Złote aury -->
  <circle cx="25" cy="40" r="3" fill="#ffff99" opacity="0.5"/>
  <circle cx="103" cy="65" r="4" fill="#ffff99" opacity="0.5"/>
  <circle cx="30" cy="80" r="2.5" fill="#ffff99" opacity="0.5"/>
  
  <!-- Złote cząsteczki -->
  <circle cx="20" cy="25" r="1" fill="#ffd700" opacity="0.7"/>
  <circle cx="108" cy="35" r="1.5" fill="#ffd700" opacity="0.7"/>
  <circle cx="15" cy="65" r="1" fill="#ffd700" opacity="0.7"/>
  
  <!-- Sznurek złoty -->
  <line x1="64" y1="100" x2="64" y2="115" stroke="#daa520" stroke-width="3"/>
</svg>