<svg viewBox="0 0 128 128" xmlns="http://www.w3.org/2000/svg">
  <defs>
    <radialGradient id="blueBoss" cx="0.3" cy="0.3">
      <stop offset="0%" stop-color="#74c0fc"/>
      <stop offset="70%" stop-color="#339af0"/>
      <stop offset="100%" stop-color="#1864ab"/>
    </radialGradient>
    <filter id="glow">
      <feGaussianBlur stdDeviation="2" result="coloredBlur"/>
      <feMerge>
        <feMergeNode in="coloredBlur"/>
        <feMergeNode in="SourceGraphic"/>
      </feMerge>
    </filter>
  </defs>
  
  <!-- Główny balon -->
  <ellipse cx="64" cy="60" rx="35" ry="40" fill="url(#blueBoss)" filter="url(#glow)"/>
  
  <!-- Pancerz -->
  <rect x="40" y="45" width="48" height="30" fill="none" stroke="#000" stroke-width="1" opacity="0.4"/>
  <rect x="44" y="49" width="40" height="22" fill="none" stroke="#000" stroke-width="1" opacity="0.3"/>
  
  <!-- Lodowe kryształy -->
  <polygon points="48,32 52,22 56,32" fill="#b3d9ff" opacity="0.8"/>
  <polygon points="72,35 76,25 80,35" fill="#b3d9ff" opacity="0.8"/>
  <polygon points="42,85 46,95 50,85" fill="#b3d9ff" opacity="0.8"/>
  <polygon points="78,88 82,98 86,88" fill="#b3d9ff" opacity="0.8"/>
  
  <!-- Oczy -->
  <ellipse cx="56" cy="58" rx="3" ry="4" fill="#000"/>
  <ellipse cx="72" cy="58" rx="3" ry="4" fill="#000"/>
  <ellipse cx="56.5" cy="57" rx="1" ry="1.5" fill="#87ceeb"/>
  <ellipse cx="72.5" cy="57" rx="1" ry="1.5" fill="#87ceeb"/>
  
  <!-- Usta (zimne) -->
  <path d="M56 70 Q64 66 72 70" stroke="#000" stroke-width="2" fill="none"/>
  
  <!-- Lodowe aury -->
  <circle cx="25" cy="45" r="3" fill="#e6f3ff" opacity="0.5"/>
  <circle cx="103" cy="65" r="4" fill="#e6f3ff" opacity="0.5"/>
  
  <!-- Sznurek -->
  <line x1="64" y1="100" x2="64" y2="115" stroke="#4682b4" stroke-width="3"/>
</svg>