<svg viewBox="0 0 128 128" xmlns="http://www.w3.org/2000/svg">
  <defs>
    <radialGradient id="greenBoss" cx="0.3" cy="0.3">
      <stop offset="0%" stop-color="#8ce99a"/>
      <stop offset="70%" stop-color="#51cf66"/>
      <stop offset="100%" stop-color="#2b8a3e"/>
    </radialGradient>
    <filter id="glow">
      <feGaussianBlur stdDeviation="2" result="coloredBlur"/>
      <feMerge>
        <feMergeNode in="coloredBlur"/>
        <feMergeNode in="SourceGraphic"/>
      </feMerge>
    </filter>
  </defs>
  
  <!-- Główny balon -->
  <ellipse cx="64" cy="60" rx="35" ry="40" fill="url(#greenBoss)" filter="url(#glow)"/>
  
  <!-- Liście -->
  <ellipse cx="45" cy="42" rx="6" ry="12" fill="#228b22" opacity="0.8" transform="rotate(-30 45 42)"/>
  <ellipse cx="83" cy="47" rx="6" ry="12" fill="#228b22" opacity="0.8" transform="rotate(45 83 47)"/>
  <ellipse cx="48" cy="82" rx="8" ry="10" fill="#228b22" opacity="0.8"/>
  <ellipse cx="80" cy="78" rx="8" ry="10" fill="#228b22" opacity="0.8"/>
  <ellipse cx="35" cy="65" rx="5" ry="8" fill="#32cd32" opacity="0.7"/>
  <ellipse cx="93" cy="70" rx="5" ry="8" fill="#32cd32" opacity="0.7"/>
  
  <!-- Oczy -->
  <ellipse cx="56" cy="58" rx="3" ry="4" fill="#000"/>
  <ellipse cx="72" cy="58" rx="3" ry="4" fill="#000"/>
  <ellipse cx="56.5" cy="57" rx="1" ry="1.5" fill="#90ee90"/>
  <ellipse cx="72.5" cy="57" rx="1" ry="1.5" fill="#90ee90"/>
  
  <!-- Uśmiech -->
  <path d="M56 68 Q64 74 72 68" stroke="#000" stroke-width="2" fill="none"/>
  
  <!-- Korona z liści -->
  <ellipse cx="64" cy="25" rx="12" ry="6" fill="#228b22" opacity="0.8"/>
  <ellipse cx="52" cy="23" rx="6" ry="4" fill="#32cd32" opacity="0.7"/>
  <ellipse cx="76" cy="23" rx="6" ry="4" fill="#32cd32" opacity="0.7"/>
  
  <!-- Naturalna energia -->
  <circle cx="25" cy="35" r="2" fill="#90ee90" opacity="0.6"/>
  <circle cx="103" cy="50" r="3" fill="#90ee90" opacity="0.6"/>
  <circle cx="20" cy="75" r="2.5" fill="#98fb98" opacity="0.5"/>
  
  <!-- Sznurek -->
  <line x1="64" y1="100" x2="64" y2="115" stroke="#8fbc8f" stroke-width="2"/>
</svg>