<svg xmlns="http://www.w3.org/2000/svg" viewBox="0 0 768 768">
  <!-- Definicje wzorów i gradientów -->
  <defs>
    <!-- Wzór trawy -->
    <pattern id="grassPattern" patternUnits="userSpaceOnUse" width="128" height="128" patternTransform="scale(0.1)">
      <rect width="128" height="128" fill="#5da130"/>
      <circle cx="25" cy="25" r="4" fill="#4c8c29"/>
      <circle cx="51" cy="76" r="5" fill="#4c8c29"/>
      <circle cx="76" cy="38" r="4" fill="#4c8c29"/>
      <circle cx="102" cy="89" r="5" fill="#4c8c29"/>
      <circle cx="38" cy="115" r="4" fill="#4c8c29"/>
      <circle cx="89" cy="13" r="3" fill="#4c8c29"/>
      <circle cx="13" cy="64" r="3" fill="#4c8c29"/>
      <circle cx="115" cy="51" r="4" fill="#4c8c29"/>
    </pattern>
    
    <!-- Wzór drogi -->
    <pattern id="pathPattern" patternUnits="userSpaceOnUse" width="128" height="128" patternTransform="scale(0.1)">
      <rect width="128" height="128" fill="#c2a16e"/>
      <rect x="0" y="57" width="128" height="14" fill="#b3946b"/>
      <rect x="57" y="0" width="14" height="128" fill="#b3946b"/>
    </pattern>
    
    <!-- Wzór wody -->
    <pattern id="waterPattern" patternUnits="userSpaceOnUse" width="128" height="128" patternTransform="scale(0.1)">
      <rect width="128" height="128" fill="#4a90e2"/>
      <path d="M0,13 Q32,0 64,13 T128,13 V128 H0 Z" fill="#3a80d2"/>
      <path d="M0,51 Q32,38 64,51 T128,51 V128 H0 Z" fill="#3a80d2" opacity="0.6"/>
      <path d="M0,89 Q32,76 64,89 T128,89 V128 H0 Z" fill="#3a80d2" opacity="0.4"/>
    </pattern>
    
    <!-- Wzór kamieni -->
    <pattern id="stonePattern" patternUnits="userSpaceOnUse" width="128" height="128" patternTransform="scale(0.1)">
      <rect width="128" height="128" fill="#7d7d7d"/>
      <circle cx="32" cy="32" r="19" fill="#696969"/>
      <circle cx="96" cy="96" r="26" fill="#696969"/>
      <circle cx="96" cy="32" r="13" fill="#696969"/>
      <circle cx="32" cy="96" r="15" fill="#696969"/>
      <circle cx="64" cy="64" r="23" fill="#696969"/>
    </pattern>
    
    <!-- Wzór piasku -->
    <pattern id="sandPattern" patternUnits="userSpaceOnUse" width="128" height="128" patternTransform="scale(0.1)">
      <rect width="128" height="128" fill="#e6d2a8"/>
      <circle cx="26" cy="26" r="3" fill="#d9c598"/>
      <circle cx="51" cy="76" r="4" fill="#d9c598"/>
      <circle cx="76" cy="38" r="3" fill="#d9c598"/>
      <circle cx="102" cy="89" r="4" fill="#d9c598"/>
      <circle cx="38" cy="115" r="3" fill="#d9c598"/>
      <circle cx="89" cy="13" r="1" fill="#d9c598"/>
      <circle cx="13" cy="64" r="1" fill="#d9c598"/>
      <circle cx="115" cy="51" r="3" fill="#d9c598"/>
    </pattern>
    
    <!-- Gradient dla startu -->
    <radialGradient id="startGradient" cx="50%" cy="50%" r="50%" fx="50%" fy="50%">
      <stop offset="0%" stop-color="#4CAF50"/>
      <stop offset="100%" stop-color="#2E7D32"/>
    </radialGradient>
    
    <!-- Gradient dla końca -->
    <radialGradient id="endGradient" cx="50%" cy="50%" r="50%" fx="50%" fy="50%">
      <stop offset="0%" stop-color="#F44336"/>
      <stop offset="100%" stop-color="#B71C1C"/>
    </radialGradient>
  </defs>
  
  <!-- Grupa płytek 128x128 -->
  <!-- Rząd 1 -->
  <g>
    <!-- Trawa -->
    <rect x="0" y="0" width="128" height="128" fill="url(#grassPattern)" stroke="#000" stroke-width="1"/>
    
    <!-- Droga prosta (pozioma) -->
    <rect x="128" y="0" width="128" height="128" fill="url(#pathPattern)" stroke="#000" stroke-width="1"/>
    <rect x="153" y="51" width="78" height="26" fill="#a08762"/>
    
    <!-- Droga prosta (pionowa) -->
    <rect x="256" y="0" width="128" height="128" fill="url(#pathPattern)" stroke="#000" stroke-width="1"/>
    <rect x="307" y="0" width="26" height="128" fill="#a08762"/>
    
    <!-- Droga - zakręt (prawo-dół) -->
    <rect x="384" y="0" width="128" height="128" fill="url(#pathPattern)" stroke="#000" stroke-width="1"/>
    <path d="M384,51 L486,51 L486,128 L460,128 L460,77 L384,77 Z" fill="#a08762"/>
    
    <!-- Droga - zakręt (lewo-dół) -->
    <rect x="512" y="0" width="128" height="128" fill="url(#pathPattern)" stroke="#000" stroke-width="1"/>
    <path d="M512,51 L640,51 L640,77 L563,77 L563,128 L537,128 L537,77 L512,77 Z" fill="#a08762"/>
    
    <!-- Droga - trójnik -->
    <rect x="640" y="0" width="128" height="128" fill="url(#pathPattern)" stroke="#000" stroke-width="1"/>
    <path d="M640,51 L768,51 L768,77 L691,77 L691,128 L665,128 L665,77 L640,77 Z" fill="#a08762"/>
    <rect x="716" y="51" width="26" height="77" fill="#a08762"/>
  </g>
  
  <!-- Rząd 2 -->
  <g>
    <!-- Woda -->
    <rect x="0" y="128" width="128" height="128" fill="url(#waterPattern)" stroke="#000" stroke-width="1"/>
    
    <!-- Kamienie -->
    <rect x="128" y="128" width="128" height="128" fill="url(#stonePattern)" stroke="#000" stroke-width="1"/>
    
    <!-- Piasek -->
    <rect x="256" y="128" width="128" height="128" fill="url(#sandPattern)" stroke="#000" stroke-width="1"/>
    
    <!-- Droga - zakręt (góra-prawo) -->
    <rect x="384" y="128" width="128" height="128" fill="url(#pathPattern)" stroke="#000" stroke-width="1"/>
    <path d="M384,51 L486,51 L486,0 L460,0 L460,77 L384,77 Z" fill="#a08762" transform="translate(0,128)"/>
    
    <!-- Droga - zakręt (góra-lewo) -->
    <rect x="512" y="128" width="128" height="128" fill="url(#pathPattern)" stroke="#000" stroke-width="1"/>
    <path d="M512,51 L640,51 L640,77 L563,77 L563,0 L537,0 L537,77 L512,77 Z" fill="#a08762" transform="translate(0,128)"/>
    
    <!-- Droga - skrzyżowanie -->
    <rect x="640" y="128" width="128" height="128" fill="url(#pathPattern)" stroke="#000" stroke-width="1"/>
    <rect x="691" y="128" width="26" height="128" fill="#a08762"/>
    <rect x="640" y="179" width="128" height="26" fill="#a08762"/>
  </g>
  
  <!-- Rząd 3 -->
  <g>
    <!-- Start -->
    <rect x="0" y="256" width="128" height="128" fill="url(#startGradient)" stroke="#000" stroke-width="1"/>
    <text x="64" y="326" text-anchor="middle" font-family="Arial" font-size="30" fill="white">START</text>
    <polygon points="38,294 90,294 64,345" fill="white"/>
    
    <!-- End -->
    <rect x="128" y="256" width="128" height="128" fill="url(#endGradient)" stroke="#000" stroke-width="1"/>
    <text x="192" y="326" text-anchor="middle" font-family="Arial" font-size="30" fill="white">END</text>
    <rect x="166" y="294" width="52" height="52" fill="white"/>
    
    <!-- Tower Spot 1 -->
    <rect x="256" y="256" width="128" height="128" fill="url(#grassPattern)" stroke="#000" stroke-width="1"/>
    <circle cx="320" cy="320" r="38" fill="none" stroke="#fff" stroke-width="4" stroke-dasharray="13,6"/>
    <text x="320" y="326" text-anchor="middle" font-family="Arial" font-size="18" fill="white">TOWER</text>
    
    <!-- Tower Spot 2 -->
    <rect x="384" y="256" width="128" height="128" fill="url(#stonePattern)" stroke="#000" stroke-width="1"/>
    <circle cx="448" cy="320" r="38" fill="none" stroke="#fff" stroke-width="4" stroke-dasharray="13,6"/>
    <text x="448" y="326" text-anchor="middle" font-family="Arial" font-size="18" fill="white">TOWER</text>
    
    <!-- Most przez wodę - poziomy -->
    <rect x="512" y="256" width="128" height="128" fill="url(#waterPattern)" stroke="#000" stroke-width="1"/>
    <rect x="524" y="307" width="104" height="26" fill="#8B4513" stroke="#000" stroke-width="1"/>
    <line x1="537" y1="307" x2="537" y2="333" stroke="#000" stroke-width="1"/>
    <line x1="563" y1="307" x2="563" y2="333" stroke="#000" stroke-width="1"/>
    <line x1="589" y1="307" x2="589" y2="333" stroke="#000" stroke-width="1"/>
    <line x1="614" y1="307" x2="614" y2="333" stroke="#000" stroke-width="1"/>
    
    <!-- Most przez wodę - pionowy -->
    <rect x="640" y="256" width="128" height="128" fill="url(#waterPattern)" stroke="#000" stroke-width="1"/>
    <rect x="691" y="269" width="26" height="104" fill="#8B4513" stroke="#000" stroke-width="1"/>
    <line x1="691" y1="281" x2="717" y2="281" stroke="#000" stroke-width="1"/>
    <line x1="691" y1="307" x2="717" y2="307" stroke="#000" stroke-width="1"/>
    <line x1="691" y1="333" x2="717" y2="333" stroke="#000" stroke-width="1"/>
    <line x1="691" y1="358" x2="717" y2="358" stroke="#000" stroke-width="1"/>
  </g>
  
  <!-- Rząd 4 - Dodatkowe elementy -->
  <g>
    <!-- Trawa z kamieniem -->
    <rect x="0" y="384" width="128" height="128" fill="url(#grassPattern)" stroke="#000" stroke-width="1"/>
    <circle cx="64" cy="448" r="26" fill="#7d7d7d"/>
    <ellipse cx="51" cy="442" rx="6" ry="4" fill="#696969"/>
    <ellipse cx="77" cy="455" rx="8" ry="5" fill="#696969"/>
    
    <!-- Woda z lilią -->
    <rect x="128" y="384" width="128" height="128" fill="url(#waterPattern)" stroke="#000" stroke-width="1"/>
    <circle cx="166" cy="422" r="19" fill="#7EB356"/>
    <circle cx="217" cy="473" r="19" fill="#7EB356"/>
    <circle cx="166" cy="422" r="13" fill="#92D050"/>
    <circle cx="217" cy="473" r="13" fill="#92D050"/>
    <circle cx="166" cy="422" r="4" fill="#FFF59D"/>
    <circle cx="217" cy="473" r="4" fill="#FFF59D"/>
    
    <!-- Trawa ze ścieżką -->
    <rect x="256" y="384" width="128" height="128" fill="url(#grassPattern)" stroke="#000" stroke-width="1"/>
    <path d="M281,384 C294,410 345,422 358,448 C371,474 307,486 281,512" fill="none" stroke="#c2a16e" stroke-width="13" stroke-linecap="round"/>
    
    <!-- Droga z przeszkodą -->
    <rect x="384" y="384" width="128" height="128" fill="url(#pathPattern)" stroke="#000" stroke-width="1"/>
    <rect x="409" y="435" width="78" height="26" fill="#a08762"/>
    <rect x="435" y="422" width="26" height="52" fill="#7d7d7d"/>
    
    <!-- Trawa z kwiatkami -->
    <rect x="512" y="384" width="128" height="128" fill="url(#grassPattern)" stroke="#000" stroke-width="1"/>
    <circle cx="537" cy="409" r="6" fill="#FF5252"/>
    <circle cx="563" cy="435" r="6" fill="#FFD740"/>
    <circle cx="589" cy="461" r="6" fill="#FF5252"/>
    <circle cx="614" cy="486" r="6" fill="#FFD740"/>
    <circle cx="550" cy="486" r="6" fill="#FF5252"/>
    <circle cx="601" cy="409" r="6" fill="#FFD740"/>
    
    <!-- Przeszkoda - skały -->
    <rect x="640" y="384" width="128" height="128" fill="url(#grassPattern)" stroke="#000" stroke-width="1"/>
    <path d="M665,448 L678,422 L704,416 L729,429 L742,455 L729,480 L704,486 L678,474 Z" fill="#7d7d7d"/>
    <path d="M672,442 L684,429 L697,422 L716,435 L729,455 L716,468 L697,474 L684,461 Z" fill="#696969"/>
  </g>
  
  <!-- Rząd 5 - Specjalne płytki i dekoracje -->
  <g>
    <!-- Specjalna płytka - Energia -->
    <rect x="0" y="512" width="128" height="128" fill="url(#grassPattern)" stroke="#000" stroke-width="1"/>
    <circle cx="64" cy="576" r="38" fill="#FFD740"/>
    <text x="64" y="582" text-anchor="middle" font-family="Arial" font-size="18" fill="#000">ENERGY</text>
    
    <!-- Specjalna płytka - Złoto -->
    <rect x="128" y="512" width="128" height="128" fill="url(#grassPattern)" stroke="#000" stroke-width="1"/>
    <circle cx="192" cy="576" r="38" fill="#FFC107"/>
    <text x="192" y="582" text-anchor="middle" font-family="Arial" font-size="18" fill="#000">GOLD</text>
    
    <!-- Specjalna płytka - Portal -->
    <rect x="256" y="512" width="128" height="128" fill="url(#grassPattern)" stroke="#000" stroke-width="1"/>
    <circle cx="320" cy="576" r="38" fill="#7B1FA2"/>
    <ellipse cx="320" cy="576" rx="32" ry="19" fill="#9C27B0" transform="rotate(45,320,576)"/>
    <ellipse cx="320" cy="576" rx="32" ry="19" fill="#9C27B0" transform="rotate(-45,320,576)"/>
    <circle cx="320" cy="576" r="13" fill="#E1BEE7"/>
    
    <!-- Specjalna płytka - Lawa -->
    <rect x="384" y="512" width="128" height="128" fill="#FF5722" stroke="#000" stroke-width="1"/>
    <circle cx="409" cy="537" r="13" fill="#FFAB91"/>
    <circle cx="448" cy="563" r="19" fill="#FFAB91"/>
    <circle cx="486" cy="537" r="15" fill="#FFAB91"/>
    <circle cx="409" cy="601" r="19" fill="#FFAB91"/>
    <circle cx="460" cy="614" r="13" fill="#FFAB91"/>
    <circle cx="499" cy="588" r="10" fill="#FFAB91"/>
    
    <!-- Specjalna płytka - Lód -->
    <rect x="512" y="512" width="128" height="128" fill="#B3E5FC" stroke="#000" stroke-width="1"/>
    <path d="M524,524 L550,524 L537,550 Z" fill="#E1F5FE"/>
    <path d="M575,537 L601,537 L588,563 Z" fill="#E1F5FE"/>
    <path d="M550,576 L576,576 L563,601 Z" fill="#E1F5FE"/>
    <path d="M601,588 L627,588 L614,614 Z" fill="#E1F5FE"/>
    
    <!-- Specjalna płytka - Teleport -->
    <rect x="640" y="512" width="128" height="128" fill="#000" stroke="#000" stroke-width="1"/>
    <circle cx="704" cy="576" r="38" fill="none" stroke="#00BCD4" stroke-width="4"/>
    <circle cx="704" cy="576" r="26" fill="none" stroke="#00BCD4" stroke-width="3"/>
    <circle cx="704" cy="576" r="13" fill="#00BCD4"/>
    <circle cx="704" cy="576" r="6" fill="#B2EBF2"/>
  </g>
  
  <!-- Rząd 6 - Dodatkowe warianty -->
  <g>
    <!-- Wariant trawy 1 -->
    <rect x="0" y="640" width="128" height="128" fill="#8BC34A" stroke="#000" stroke-width="1"/>
    <circle cx="26" cy="666" r="5" fill="#689F38"/>
    <circle cx="51" cy="716" r="6" fill="#689F38"/>
    <circle cx="77" cy="678" r="5" fill="#689F38"/>
    <circle cx="102" cy="729" r="6" fill="#689F38"/>
    <circle cx="38" cy="755" r="5" fill="#689F38"/>
    <circle cx="89" cy="652" r="4" fill="#689F38"/>
    <circle cx="13" cy="704" r="4" fill="#689F38"/>
    <circle cx="115" cy="691" r="5" fill="#689F38"/>
    
    <!-- Wariant drogi 1 -->
    <rect x="128" y="640" width="128" height="128" fill="#A1887F" stroke="#000" stroke-width="1"/>
    <rect x="153" y="691" width="78" height="26" fill="#8D6E63"/>
    
    <!-- Wariant wody 1 -->
    <rect x="256" y="640" width="128" height="128" fill="#26C6DA" stroke="#000" stroke-width="1"/>
    <path d="M256,652 Q288,640 320,652 T384,652 V768 H256 Z" fill="#00ACC1"/>
    <path d="M256,691 Q288,678 320,691 T384,691 V768 H256 Z" fill="#00ACC1" opacity="0.6"/>
    <path d="M256,729 Q288,716 320,729 T384,729 V768 H256 Z" fill="#00ACC1" opacity="0.4"/>
    
    <!-- Wariant kamieni 1 -->
    <rect x="384" y="640" width="128" height="128" fill="#9E9E9E" stroke="#000" stroke-width="1"/>
    <circle cx="416" cy="672" r="19" fill="#757575"/>
    <circle cx="480" cy="736" r="26" fill="#757575"/>
    <circle cx="480" cy="672" r="13" fill="#757575"/>
    <circle cx="416" cy="736" r="15" fill="#757575"/>
    <circle cx="448" cy="704" r="23" fill="#757575"/>
    
    <!-- Wariant piasku 1 -->
    <rect x="512" y="640" width="128" height="128" fill="#FFECB3" stroke="#000" stroke-width="1"/>
    <circle cx="537" cy="666" r="3" fill="#FFE082"/>
    <circle cx="563" cy="716" r="4" fill="#FFE082"/>
    <circle cx="588" cy="678" r="3" fill="#FFE082"/>
    <circle cx="614" cy="729" r="4" fill="#FFE082"/>
    <circle cx="550" cy="755" r="3" fill="#FFE082"/>
    <circle cx="601" cy="652" r="1" fill="#FFE082"/>
    <circle cx="524" cy="704" r="1" fill="#FFE082"/>
    <circle cx="627" cy="691" r="3" fill="#FFE082"/>
    
    <!-- Placeholder dla dodatkowych płytek -->
    <rect x="640" y="640" width="128" height="128" fill="#EEEEEE" stroke="#000" stroke-width="1"/>
    <text x="704" y="704" text-anchor="middle" font-family="Arial" font-size="18" fill="#000">CUSTOM</text>
  </g>
</svg>
