<svg xmlns="http://www.w3.org/2000/svg" viewBox="0 0 1200 800">
  <!-- Tło nieba -->
  <defs>
    <linearGradient id="skyGradient" x1="0%" y1="0%" x2="0%" y2="100%">
      <stop offset="0%" style="stop-color:#1a4780;stop-opacity:1" />
      <stop offset="100%" style="stop-color:#5b9bd5;stop-opacity:1" />
    </linearGradient>
    
    <!-- Gradient dla ziemi -->
    <linearGradient id="groundGradient" x1="0%" y1="0%" x2="0%" y2="100%">
      <stop offset="0%" style="stop-color:#3a7e3a;stop-opacity:1" />
      <stop offset="100%" style="stop-color:#276627;stop-opacity:1" />
    </linearGradient>
    
    <!-- Gradient dla drogi -->
    <linearGradient id="pathGradient" x1="0%" y1="0%" x2="0%" y2="100%">
      <stop offset="0%" style="stop-color:#b39169;stop-opacity:1" />
      <stop offset="100%" style="stop-color:#95714d;stop-opacity:1" />
    </linearGradient>
    
    <!-- Pattern dla trawy -->
    <pattern id="grassPattern" width="20" height="20" patternUnits="userSpaceOnUse">
      <rect width="20" height="20" fill="#3a7e3a"/>
      <circle cx="5" cy="5" r="1" fill="#4ca64c"/>
      <circle cx="15" cy="15" r="1" fill="#4ca64c"/>
      <circle cx="10" cy="10" r="1" fill="#4ca64c"/>
    </pattern>
  </defs>

  <!-- Tło nieba -->
  <rect width="1200" height="800" fill="url(#skyGradient)"/>
  
  <!-- Chmury -->
  <ellipse cx="200" cy="150" rx="100" ry="50" fill="#ffffff" opacity="0.7"/>
  <ellipse cx="250" cy="170" rx="80" ry="40" fill="#ffffff" opacity="0.7"/>
  <ellipse cx="150" cy="170" rx="70" ry="35" fill="#ffffff" opacity="0.7"/>
  
  <ellipse cx="900" cy="100" rx="120" ry="60" fill="#ffffff" opacity="0.6"/>
  <ellipse cx="950" cy="120" rx="90" ry="45" fill="#ffffff" opacity="0.6"/>
  <ellipse cx="850" cy="120" rx="100" ry="50" fill="#ffffff" opacity="0.6"/>
  
  <ellipse cx="500" cy="200" rx="80" ry="40" fill="#ffffff" opacity="0.5"/>
  <ellipse cx="550" cy="220" rx="60" ry="30" fill="#ffffff" opacity="0.5"/>
  
  <!-- Góry w tle -->
  <polygon points="0,400 200,200 400,350 600,180 800,300 1000,220 1200,350 1200,500 0,500" fill="#6a8caa"/>
  <polygon points="0,450 150,300 300,400 450,250 600,350 750,270 900,380 1050,300 1200,420 1200,550 0,550" fill="#526d8a"/>
  
  <!-- Ziemia -->
  <rect x="0" y="500" width="1200" height="300" fill="url(#groundGradient)"/>
  
  <!-- Ścieżka/droga -->
  <path d="M-50,650 C100,630 200,680 300,650 S450,600 550,620 S700,680 800,650 S950,600 1050,630 S1200,680 1300,650" 
        stroke="url(#pathGradient)" stroke-width="80" fill="none"/>
  
  <!-- Elementy trawy -->
  <rect x="0" y="500" width="1200" height="300" fill="url(#grassPattern)" opacity="0.3"/>
  
  <!-- Wieże w tle -->
  <!-- Wieża 1 -->
  <g transform="translate(250, 520) scale(0.8)">
    <circle cx="0" cy="0" r="40" fill="#888888" stroke="#666666" stroke-width="2"/>
    <circle cx="0" cy="0" r="30" fill="#999999"/>
    <circle cx="0" cy="0" r="15" fill="#ff0000"/>
    <rect x="-5" y="-40" width="10" height="25" fill="#777777"/>
  </g>
  
  <!-- Wieża 2 -->
  <g transform="translate(450, 480) scale(0.7)">
    <circle cx="0" cy="0" r="40" fill="#3a7ebf" stroke="#2a6eaf" stroke-width="2"/>
    <circle cx="0" cy="0" r="30" fill="#5a9edf"/>
    <rect x="-20" y="-20" width="40" height="40" fill="none" stroke="#2a6eaf" stroke-width="3"/>
    <circle cx="-10" cy="0" r="10" fill="#444444"/>
    <circle cx="10" cy="0" r="10" fill="#444444"/>
  </g>
  
  <!-- Wieża 3 -->
  <g transform="translate(700, 510) scale(0.9)">
    <circle cx="0" cy="0" r="40" fill="#9b59b6" stroke="#8e44ad" stroke-width="2"/>
    <circle cx="0" cy="0" r="30" fill="#b383d3"/>
    <circle cx="0" cy="0" r="15" fill="#d7ace4"/>
    <circle cx="0" cy="0" r="20" fill="none" stroke="#ffffff" stroke-width="1" opacity="0.6"/>
  </g>
  
  <!-- Wieża 4 -->
  <g transform="translate(900, 490) scale(0.75)">
    <circle cx="0" cy="0" r="40" fill="#e74c3c" stroke="#c0392b" stroke-width="2"/>
    <circle cx="0" cy="0" r="30" fill="#e67e22"/>
    <circle cx="-15" cy="-15" r="10" fill="#c0392b"/>
    <circle cx="15" cy="-15" r="10" fill="#c0392b"/>
    <circle cx="-15" cy="15" r="10" fill="#c0392b"/>
    <circle cx="15" cy="15" r="10" fill="#c0392b"/>
  </g>
  
  <!-- Nieprzyjaciele -->
  <circle cx="350" cy="650" r="15" fill="#772222" stroke="#551111" stroke-width="2"/>
  <circle cx="550" cy="620" r="12" fill="#772222" stroke="#551111" stroke-width="2"/>
  <circle cx="750" cy="650" r="18" fill="#772222" stroke="#551111" stroke-width="2"/>
  
  <!-- Słońce -->
  <circle cx="1100" cy="120" r="60" fill="#ffdd55" opacity="0.9"/>
  <circle cx="1100" cy="120" r="70" fill="#ffdd55" opacity="0.3"/>
  <circle cx="1100" cy="120" r="80" fill="#ffdd55" opacity="0.1"/>
  
  <!-- Tytuł z efektami -->
  <filter id="shadow" x="-20%" y="-20%" width="140%" height="140%">
    <feDropShadow dx="2" dy="4" stdDeviation="4" flood-color="#000000" flood-opacity="0.3"/>
  </filter>
</svg>
